<mxfile host="app.diagrams.net" modified="2024-04-11T23:22:16.054Z" agent="Mozilla/5.0 (X11; CrOS x86_64 14541.0.0) AppleWebKit/537.36 (KHTML, like Gecko) Chrome/122.0.0.0 Safari/537.36" etag="zuENXiQW57FmNkKdOipK" version="24.2.3" type="github">
  <diagram name="Página-1" id="BqkP0zEK79z1pLGELWx7">
    <mxGraphModel dx="826" dy="394" grid="1" gridSize="10" guides="1" tooltips="1" connect="1" arrows="1" fold="1" page="1" pageScale="1" pageWidth="827" pageHeight="1169" math="0" shadow="0">
      <root>
        <mxCell id="0" />
        <mxCell id="1" parent="0" />
        <mxCell id="essIW2ThO4qJz_jhKlfG-8" value="Central ADM" style="swimlane;startSize=20;whiteSpace=wrap;html=1;" vertex="1" parent="1">
          <mxGeometry x="350" y="320" width="120" height="410" as="geometry" />
        </mxCell>
        <mxCell id="essIW2ThO4qJz_jhKlfG-37" value="Anota o numero da mesa os produtos e o horario" style="html=1;dashed=0;rounded=1;absoluteArcSize=1;arcSize=20;verticalAlign=middle;align=center;whiteSpace=wrap;" vertex="1" parent="essIW2ThO4qJz_jhKlfG-8">
          <mxGeometry x="19" y="40" width="88.75" height="55" as="geometry" />
        </mxCell>
        <mxCell id="essIW2ThO4qJz_jhKlfG-38" value="*" style="text;resizeWidth=0;resizeHeight=0;points=[];part=1;verticalAlign=middle;align=center;html=1;" vertex="1" parent="essIW2ThO4qJz_jhKlfG-37">
          <mxGeometry x="1" y="0.5" width="20" height="20" relative="1" as="geometry">
            <mxPoint x="-20" y="-10" as="offset" />
          </mxGeometry>
        </mxCell>
        <mxCell id="essIW2ThO4qJz_jhKlfG-48" value="Recebe a notificaçâo do preparo" style="html=1;dashed=0;rounded=1;absoluteArcSize=1;arcSize=20;verticalAlign=middle;align=center;whiteSpace=wrap;" vertex="1" parent="essIW2ThO4qJz_jhKlfG-8">
          <mxGeometry x="14.38" y="150" width="90" height="50" as="geometry" />
        </mxCell>
        <mxCell id="essIW2ThO4qJz_jhKlfG-49" value="*" style="text;resizeWidth=0;resizeHeight=0;points=[];part=1;verticalAlign=middle;align=center;html=1;" vertex="1" parent="essIW2ThO4qJz_jhKlfG-48">
          <mxGeometry x="1" y="0.5" width="20" height="20" relative="1" as="geometry">
            <mxPoint x="-20" y="-10" as="offset" />
          </mxGeometry>
        </mxCell>
        <mxCell id="essIW2ThO4qJz_jhKlfG-71" value="Calcula o pagamento" style="html=1;dashed=0;rounded=1;absoluteArcSize=1;arcSize=20;verticalAlign=middle;align=center;whiteSpace=wrap;" vertex="1" parent="essIW2ThO4qJz_jhKlfG-8">
          <mxGeometry x="20.629999999999995" y="280" width="77.5" height="30" as="geometry" />
        </mxCell>
        <mxCell id="essIW2ThO4qJz_jhKlfG-72" value="*" style="text;resizeWidth=0;resizeHeight=0;points=[];part=1;verticalAlign=middle;align=center;html=1;" vertex="1" parent="essIW2ThO4qJz_jhKlfG-71">
          <mxGeometry x="1" y="0.5" width="20" height="20" relative="1" as="geometry">
            <mxPoint x="-20" y="-10" as="offset" />
          </mxGeometry>
        </mxCell>
        <mxCell id="essIW2ThO4qJz_jhKlfG-9" value="Garçom" style="swimlane;startSize=20;whiteSpace=wrap;html=1;" vertex="1" parent="1">
          <mxGeometry x="230" y="320" width="120" height="410" as="geometry" />
        </mxCell>
        <mxCell id="essIW2ThO4qJz_jhKlfG-25" value="Entrega o cardapio" style="html=1;dashed=0;rounded=1;absoluteArcSize=1;arcSize=20;verticalAlign=middle;align=center;whiteSpace=wrap;" vertex="1" parent="essIW2ThO4qJz_jhKlfG-9">
          <mxGeometry x="15" y="60" width="90" height="30" as="geometry" />
        </mxCell>
        <mxCell id="essIW2ThO4qJz_jhKlfG-26" value="*" style="text;resizeWidth=0;resizeHeight=0;points=[];part=1;verticalAlign=middle;align=center;html=1;" vertex="1" parent="essIW2ThO4qJz_jhKlfG-25">
          <mxGeometry x="1" y="0.5" width="20" height="20" relative="1" as="geometry">
            <mxPoint x="-20" y="-10" as="offset" />
          </mxGeometry>
        </mxCell>
        <mxCell id="essIW2ThO4qJz_jhKlfG-30" value="Registra o pedido" style="html=1;dashed=0;rounded=1;absoluteArcSize=1;arcSize=20;verticalAlign=middle;align=center;whiteSpace=wrap;" vertex="1" parent="essIW2ThO4qJz_jhKlfG-9">
          <mxGeometry x="21.25" y="130" width="77.5" height="30" as="geometry" />
        </mxCell>
        <mxCell id="essIW2ThO4qJz_jhKlfG-31" value="*" style="text;resizeWidth=0;resizeHeight=0;points=[];part=1;verticalAlign=middle;align=center;html=1;" vertex="1" parent="essIW2ThO4qJz_jhKlfG-30">
          <mxGeometry x="1" y="0.5" width="20" height="20" relative="1" as="geometry">
            <mxPoint x="-20" y="-10" as="offset" />
          </mxGeometry>
        </mxCell>
        <mxCell id="essIW2ThO4qJz_jhKlfG-51" value="Entregar o pedido" style="html=1;dashed=0;rounded=1;absoluteArcSize=1;arcSize=20;verticalAlign=middle;align=center;whiteSpace=wrap;" vertex="1" parent="essIW2ThO4qJz_jhKlfG-9">
          <mxGeometry x="21.25" y="220" width="77.5" height="30" as="geometry" />
        </mxCell>
        <mxCell id="essIW2ThO4qJz_jhKlfG-52" value="*" style="text;resizeWidth=0;resizeHeight=0;points=[];part=1;verticalAlign=middle;align=center;html=1;" vertex="1" parent="essIW2ThO4qJz_jhKlfG-51">
          <mxGeometry x="1" y="0.5" width="20" height="20" relative="1" as="geometry">
            <mxPoint x="-20" y="-10" as="offset" />
          </mxGeometry>
        </mxCell>
        <mxCell id="essIW2ThO4qJz_jhKlfG-64" value="Fecha o pedido" style="html=1;dashed=0;rounded=1;absoluteArcSize=1;arcSize=20;verticalAlign=middle;align=center;whiteSpace=wrap;" vertex="1" parent="essIW2ThO4qJz_jhKlfG-9">
          <mxGeometry x="21.25" y="280" width="77.5" height="30" as="geometry" />
        </mxCell>
        <mxCell id="essIW2ThO4qJz_jhKlfG-65" value="*" style="text;resizeWidth=0;resizeHeight=0;points=[];part=1;verticalAlign=middle;align=center;html=1;" vertex="1" parent="essIW2ThO4qJz_jhKlfG-64">
          <mxGeometry x="1" y="0.5" width="20" height="20" relative="1" as="geometry">
            <mxPoint x="-20" y="-10" as="offset" />
          </mxGeometry>
        </mxCell>
        <mxCell id="essIW2ThO4qJz_jhKlfG-10" value="Cozinha" style="swimlane;startSize=20;whiteSpace=wrap;html=1;" vertex="1" parent="1">
          <mxGeometry x="470" y="320" width="120" height="410" as="geometry" />
        </mxCell>
        <mxCell id="essIW2ThO4qJz_jhKlfG-40" value="Prepara o pedido" style="html=1;dashed=0;rounded=1;absoluteArcSize=1;arcSize=20;verticalAlign=middle;align=center;whiteSpace=wrap;" vertex="1" parent="essIW2ThO4qJz_jhKlfG-10">
          <mxGeometry x="21.25" y="52.5" width="77.5" height="30" as="geometry" />
        </mxCell>
        <mxCell id="essIW2ThO4qJz_jhKlfG-41" value="*" style="text;resizeWidth=0;resizeHeight=0;points=[];part=1;verticalAlign=middle;align=center;html=1;" vertex="1" parent="essIW2ThO4qJz_jhKlfG-40">
          <mxGeometry x="1" y="0.5" width="20" height="20" relative="1" as="geometry">
            <mxPoint x="-20" y="-10" as="offset" />
          </mxGeometry>
        </mxCell>
        <mxCell id="essIW2ThO4qJz_jhKlfG-45" value="Prepara as bebidas" style="html=1;dashed=0;rounded=1;absoluteArcSize=1;arcSize=20;verticalAlign=middle;align=center;whiteSpace=wrap;" vertex="1" parent="essIW2ThO4qJz_jhKlfG-10">
          <mxGeometry x="21.25" y="110" width="77.5" height="30" as="geometry" />
        </mxCell>
        <mxCell id="essIW2ThO4qJz_jhKlfG-46" value="*" style="text;resizeWidth=0;resizeHeight=0;points=[];part=1;verticalAlign=middle;align=center;html=1;" vertex="1" parent="essIW2ThO4qJz_jhKlfG-45">
          <mxGeometry x="1" y="0.5" width="20" height="20" relative="1" as="geometry">
            <mxPoint x="-20" y="-10" as="offset" />
          </mxGeometry>
        </mxCell>
        <mxCell id="essIW2ThO4qJz_jhKlfG-47" value="" style="endArrow=open;startArrow=none;endFill=0;startFill=0;endSize=8;html=1;verticalAlign=bottom;labelBackgroundColor=none;strokeWidth=1;rounded=0;exitX=0.5;exitY=1;exitDx=0;exitDy=0;entryX=0.5;entryY=0;entryDx=0;entryDy=0;" edge="1" parent="essIW2ThO4qJz_jhKlfG-10" source="essIW2ThO4qJz_jhKlfG-40" target="essIW2ThO4qJz_jhKlfG-45">
          <mxGeometry width="160" relative="1" as="geometry">
            <mxPoint x="-130" y="200" as="sourcePoint" />
            <mxPoint x="30" y="200" as="targetPoint" />
          </mxGeometry>
        </mxCell>
        <mxCell id="essIW2ThO4qJz_jhKlfG-11" value="Cliente" style="swimlane;startSize=20;whiteSpace=wrap;html=1;" vertex="1" parent="1">
          <mxGeometry x="110" y="320" width="120" height="410" as="geometry" />
        </mxCell>
        <mxCell id="essIW2ThO4qJz_jhKlfG-15" value="" style="ellipse;fillColor=strokeColor;html=1;" vertex="1" parent="essIW2ThO4qJz_jhKlfG-11">
          <mxGeometry x="45" y="40" width="30" height="30" as="geometry" />
        </mxCell>
        <mxCell id="essIW2ThO4qJz_jhKlfG-17" value="Escolhe a mesa" style="html=1;dashed=0;rounded=1;absoluteArcSize=1;arcSize=20;verticalAlign=middle;align=center;whiteSpace=wrap;" vertex="1" parent="essIW2ThO4qJz_jhKlfG-11">
          <mxGeometry x="25" y="110" width="70" height="30" as="geometry" />
        </mxCell>
        <mxCell id="essIW2ThO4qJz_jhKlfG-18" value="*" style="text;resizeWidth=0;resizeHeight=0;points=[];part=1;verticalAlign=middle;align=center;html=1;" vertex="1" parent="essIW2ThO4qJz_jhKlfG-17">
          <mxGeometry x="1" y="0.5" width="20" height="20" relative="1" as="geometry">
            <mxPoint x="-20" y="-10" as="offset" />
          </mxGeometry>
        </mxCell>
        <mxCell id="essIW2ThO4qJz_jhKlfG-23" value="" style="endArrow=open;startArrow=none;endFill=0;startFill=0;endSize=8;html=1;verticalAlign=bottom;labelBackgroundColor=none;strokeWidth=1;rounded=0;exitX=0.5;exitY=1;exitDx=0;exitDy=0;entryX=0.5;entryY=0;entryDx=0;entryDy=0;" edge="1" parent="essIW2ThO4qJz_jhKlfG-11" source="essIW2ThO4qJz_jhKlfG-15" target="essIW2ThO4qJz_jhKlfG-17">
          <mxGeometry width="160" relative="1" as="geometry">
            <mxPoint x="210" y="210" as="sourcePoint" />
            <mxPoint x="370" y="210" as="targetPoint" />
          </mxGeometry>
        </mxCell>
        <mxCell id="essIW2ThO4qJz_jhKlfG-28" value="Faz o pedido" style="html=1;dashed=0;rounded=1;absoluteArcSize=1;arcSize=20;verticalAlign=middle;align=center;whiteSpace=wrap;" vertex="1" parent="essIW2ThO4qJz_jhKlfG-11">
          <mxGeometry x="21.25" y="170" width="77.5" height="30" as="geometry" />
        </mxCell>
        <mxCell id="essIW2ThO4qJz_jhKlfG-29" value="*" style="text;resizeWidth=0;resizeHeight=0;points=[];part=1;verticalAlign=middle;align=center;html=1;" vertex="1" parent="essIW2ThO4qJz_jhKlfG-28">
          <mxGeometry x="1" y="0.5" width="20" height="20" relative="1" as="geometry">
            <mxPoint x="-20" y="-10" as="offset" />
          </mxGeometry>
        </mxCell>
        <mxCell id="essIW2ThO4qJz_jhKlfG-56" value="Solicita o pagamento" style="html=1;dashed=0;rounded=1;absoluteArcSize=1;arcSize=20;verticalAlign=middle;align=center;whiteSpace=wrap;" vertex="1" parent="essIW2ThO4qJz_jhKlfG-11">
          <mxGeometry x="21.25" y="280" width="77.5" height="30" as="geometry" />
        </mxCell>
        <mxCell id="essIW2ThO4qJz_jhKlfG-57" value="*" style="text;resizeWidth=0;resizeHeight=0;points=[];part=1;verticalAlign=middle;align=center;html=1;" vertex="1" parent="essIW2ThO4qJz_jhKlfG-56">
          <mxGeometry x="1" y="0.5" width="20" height="20" relative="1" as="geometry">
            <mxPoint x="-20" y="-10" as="offset" />
          </mxGeometry>
        </mxCell>
        <mxCell id="essIW2ThO4qJz_jhKlfG-59" value="Consome" style="html=1;dashed=0;rounded=1;absoluteArcSize=1;arcSize=20;verticalAlign=middle;align=center;whiteSpace=wrap;" vertex="1" parent="essIW2ThO4qJz_jhKlfG-11">
          <mxGeometry x="21.25" y="220" width="77.5" height="30" as="geometry" />
        </mxCell>
        <mxCell id="essIW2ThO4qJz_jhKlfG-60" value="*" style="text;resizeWidth=0;resizeHeight=0;points=[];part=1;verticalAlign=middle;align=center;html=1;" vertex="1" parent="essIW2ThO4qJz_jhKlfG-59">
          <mxGeometry x="1" y="0.5" width="20" height="20" relative="1" as="geometry">
            <mxPoint x="-20" y="-10" as="offset" />
          </mxGeometry>
        </mxCell>
        <mxCell id="essIW2ThO4qJz_jhKlfG-61" value="" style="endArrow=open;startArrow=none;endFill=0;startFill=0;endSize=8;html=1;verticalAlign=bottom;labelBackgroundColor=none;strokeWidth=1;rounded=0;exitX=0.5;exitY=1;exitDx=0;exitDy=0;entryX=0.5;entryY=0;entryDx=0;entryDy=0;" edge="1" parent="essIW2ThO4qJz_jhKlfG-11" source="essIW2ThO4qJz_jhKlfG-59" target="essIW2ThO4qJz_jhKlfG-56">
          <mxGeometry width="160" relative="1" as="geometry">
            <mxPoint x="220" y="190" as="sourcePoint" />
            <mxPoint x="380" y="190" as="targetPoint" />
          </mxGeometry>
        </mxCell>
        <mxCell id="essIW2ThO4qJz_jhKlfG-13" value="Gerente" style="swimlane;startSize=20;whiteSpace=wrap;html=1;" vertex="1" parent="1">
          <mxGeometry x="590" y="320" width="120" height="410" as="geometry" />
        </mxCell>
        <mxCell id="essIW2ThO4qJz_jhKlfG-24" value="" style="endArrow=open;startArrow=none;endFill=0;startFill=0;endSize=8;html=1;verticalAlign=bottom;labelBackgroundColor=none;strokeWidth=1;rounded=0;exitX=1.032;exitY=0.512;exitDx=0;exitDy=0;exitPerimeter=0;entryX=0;entryY=1;entryDx=0;entryDy=0;" edge="1" parent="1" source="essIW2ThO4qJz_jhKlfG-18" target="essIW2ThO4qJz_jhKlfG-25">
          <mxGeometry width="160" relative="1" as="geometry">
            <mxPoint x="320" y="530" as="sourcePoint" />
            <mxPoint x="250" y="400" as="targetPoint" />
          </mxGeometry>
        </mxCell>
        <mxCell id="essIW2ThO4qJz_jhKlfG-27" value="" style="endArrow=open;startArrow=none;endFill=0;startFill=0;endSize=8;html=1;verticalAlign=bottom;labelBackgroundColor=none;strokeWidth=1;rounded=0;exitX=0.5;exitY=1;exitDx=0;exitDy=0;" edge="1" parent="1" source="essIW2ThO4qJz_jhKlfG-25">
          <mxGeometry width="160" relative="1" as="geometry">
            <mxPoint x="330" y="510" as="sourcePoint" />
            <mxPoint x="200" y="490" as="targetPoint" />
          </mxGeometry>
        </mxCell>
        <mxCell id="essIW2ThO4qJz_jhKlfG-32" value="" style="endArrow=open;startArrow=none;endFill=0;startFill=0;endSize=8;html=1;verticalAlign=bottom;labelBackgroundColor=none;strokeWidth=1;rounded=0;entryX=0;entryY=0.5;entryDx=0;entryDy=0;" edge="1" parent="1" target="essIW2ThO4qJz_jhKlfG-30">
          <mxGeometry width="160" relative="1" as="geometry">
            <mxPoint x="210" y="505" as="sourcePoint" />
            <mxPoint x="490" y="510" as="targetPoint" />
          </mxGeometry>
        </mxCell>
        <mxCell id="essIW2ThO4qJz_jhKlfG-39" value="" style="endArrow=open;startArrow=none;endFill=0;startFill=0;endSize=8;html=1;verticalAlign=bottom;labelBackgroundColor=none;strokeWidth=1;rounded=0;entryX=0;entryY=1;entryDx=0;entryDy=0;exitX=0.969;exitY=0.54;exitDx=0;exitDy=0;exitPerimeter=0;" edge="1" parent="1" source="essIW2ThO4qJz_jhKlfG-31" target="essIW2ThO4qJz_jhKlfG-37">
          <mxGeometry width="160" relative="1" as="geometry">
            <mxPoint x="330" y="510" as="sourcePoint" />
            <mxPoint x="490" y="510" as="targetPoint" />
          </mxGeometry>
        </mxCell>
        <mxCell id="essIW2ThO4qJz_jhKlfG-42" value="" style="endArrow=open;startArrow=none;endFill=0;startFill=0;endSize=8;html=1;verticalAlign=bottom;labelBackgroundColor=none;strokeWidth=1;rounded=0;exitX=1;exitY=0.5;exitDx=0;exitDy=0;entryX=0;entryY=0.5;entryDx=0;entryDy=0;" edge="1" parent="1" source="essIW2ThO4qJz_jhKlfG-37" target="essIW2ThO4qJz_jhKlfG-40">
          <mxGeometry width="160" relative="1" as="geometry">
            <mxPoint x="340" y="520" as="sourcePoint" />
            <mxPoint x="500" y="520" as="targetPoint" />
          </mxGeometry>
        </mxCell>
        <mxCell id="essIW2ThO4qJz_jhKlfG-50" value="" style="endArrow=open;startArrow=none;endFill=0;startFill=0;endSize=8;html=1;verticalAlign=bottom;labelBackgroundColor=none;strokeWidth=1;rounded=0;exitX=0;exitY=1;exitDx=0;exitDy=0;entryX=1.023;entryY=0.426;entryDx=0;entryDy=0;entryPerimeter=0;" edge="1" parent="1" source="essIW2ThO4qJz_jhKlfG-45" target="essIW2ThO4qJz_jhKlfG-49">
          <mxGeometry width="160" relative="1" as="geometry">
            <mxPoint x="340" y="520" as="sourcePoint" />
            <mxPoint x="500" y="520" as="targetPoint" />
          </mxGeometry>
        </mxCell>
        <mxCell id="essIW2ThO4qJz_jhKlfG-53" value="" style="endArrow=open;startArrow=none;endFill=0;startFill=0;endSize=8;html=1;verticalAlign=bottom;labelBackgroundColor=none;strokeWidth=1;rounded=0;exitX=0;exitY=1;exitDx=0;exitDy=0;entryX=1.072;entryY=0.486;entryDx=0;entryDy=0;entryPerimeter=0;" edge="1" parent="1" source="essIW2ThO4qJz_jhKlfG-48" target="essIW2ThO4qJz_jhKlfG-52">
          <mxGeometry width="160" relative="1" as="geometry">
            <mxPoint x="340" y="610" as="sourcePoint" />
            <mxPoint x="500" y="610" as="targetPoint" />
          </mxGeometry>
        </mxCell>
        <mxCell id="essIW2ThO4qJz_jhKlfG-58" value="" style="endArrow=open;startArrow=none;endFill=0;startFill=0;endSize=8;html=1;verticalAlign=bottom;labelBackgroundColor=none;strokeWidth=1;rounded=0;exitX=0;exitY=0.5;exitDx=0;exitDy=0;entryX=1.038;entryY=0.543;entryDx=0;entryDy=0;entryPerimeter=0;" edge="1" parent="1" source="essIW2ThO4qJz_jhKlfG-51" target="essIW2ThO4qJz_jhKlfG-60">
          <mxGeometry width="160" relative="1" as="geometry">
            <mxPoint x="330" y="600" as="sourcePoint" />
            <mxPoint x="500" y="610" as="targetPoint" />
          </mxGeometry>
        </mxCell>
        <mxCell id="essIW2ThO4qJz_jhKlfG-66" value="" style="endArrow=open;startArrow=none;endFill=0;startFill=0;endSize=8;html=1;verticalAlign=bottom;labelBackgroundColor=none;strokeWidth=1;rounded=0;entryX=0;entryY=0.5;entryDx=0;entryDy=0;" edge="1" parent="1" target="essIW2ThO4qJz_jhKlfG-64">
          <mxGeometry width="160" relative="1" as="geometry">
            <mxPoint x="210" y="615" as="sourcePoint" />
            <mxPoint x="490" y="510" as="targetPoint" />
          </mxGeometry>
        </mxCell>
        <mxCell id="essIW2ThO4qJz_jhKlfG-69" value="" style="edgeStyle=orthogonalEdgeStyle;rounded=0;orthogonalLoop=1;jettySize=auto;html=1;" edge="1" parent="1" source="essIW2ThO4qJz_jhKlfG-64" target="essIW2ThO4qJz_jhKlfG-57">
          <mxGeometry relative="1" as="geometry" />
        </mxCell>
        <mxCell id="essIW2ThO4qJz_jhKlfG-73" value="" style="endArrow=open;startArrow=none;endFill=0;startFill=0;endSize=8;html=1;verticalAlign=bottom;labelBackgroundColor=none;strokeWidth=1;rounded=0;entryX=0;entryY=0.5;entryDx=0;entryDy=0;" edge="1" parent="1" target="essIW2ThO4qJz_jhKlfG-71">
          <mxGeometry width="160" relative="1" as="geometry">
            <mxPoint x="330" y="615" as="sourcePoint" />
            <mxPoint x="490" y="510" as="targetPoint" />
          </mxGeometry>
        </mxCell>
      </root>
    </mxGraphModel>
  </diagram>
</mxfile>
